<svg xmlns="http://www.w3.org/2000/svg" width="1024" height="346" viewBox="0 0 1024 346"><g fill="none" fill-rule="evenodd">
<path fill="#FFF" fill-rule="nonzero" stroke="#444" stroke-width="10" d="M533.264963,80.6476543 C536.665517,80.6476543 538.830711,81.7611043 540.321882,83.3613849 C541.714048,84.8554164 542.709291,87.0397914 542.709291,90.4171764 C542.709291,91.0004236 542.601548,93.3224864 542.369831,96.0011886 L535.001748,207.49757 C533.680208,227.1483 529.064636,241.567205 521.693763,251.19135 C513.719457,261.603397 502.537037,266.794779 488.171299,266.794779 C479.531675,266.794779 472.151539,264.762112 466.421078,262.09313 C462.458789,260.24768 459.270981,258.088654 456.961511,256.06853 C452.794763,252.42382 451.519016,248.914315 451.519016,247.05262 C451.519016,244.818921 452.499638,242.358062 454.115916,240.493125 C456.007985,238.309969 458.564965,237.174699 460.746547,237.174699 C462.696013,237.174699 464.449142,237.526031 468.336866,240.673236 C474.94039,246.050365 481.243248,248.339717 489.255282,248.339717 C496.939597,248.339717 503.034821,245.355999 507.392265,238.648806 C512.189542,231.264602 514.989086,219.935885 516.026386,204.129445 L518.774724,161.630748 C515.009697,168.171566 511.123381,173.636586 507.177803,178.055998 C497.819621,188.538026 488.00622,193.300779 478.523857,193.300779 C469.681055,193.300779 462.677248,189.239013 457.933877,181.29445 C453.86377,174.477523 451.519016,164.469782 451.519016,151.44538 C451.519016,130.338244 456.628154,113.124912 465.041306,101.052139 C474.212086,87.8921773 487.279747,80.6476543 502.371468,80.6476543 C509.691924,80.6476543 517.021857,82.2934715 524.244665,85.9928927 L524.496,86.123 L524.501597,86.1112851 C524.877948,85.2350292 525.319663,84.5260564 525.785705,83.9399355 L525.913379,83.7830969 C527.741998,81.5887547 530.190236,80.6476543 533.264963,80.6476543 Z M502.805061,99.1027163 C493.68969,99.1027163 485.809564,104.148329 480.187189,112.779168 C474.20524,121.961985 470.732866,135.069617 470.732866,151.011787 C470.732866,159.458434 471.71223,165.933579 473.983338,170.248684 C474.801079,171.802393 475.775943,173.025829 477.007267,173.814351 C478.124483,174.529801 479.434629,174.845717 480.908618,174.845717 C486.919269,174.845717 493.685749,167.664472 500.540894,157.526581 C508.411149,145.887472 516.09085,129.587106 522.132114,110.635877 L522.464524,105.051389 C515.523425,100.727534 509.917743,99.1027163 502.805061,99.1027163 Z M412.94278,80.6476543 C421.586781,80.6476543 429.935711,83.1027704 434.122536,85.565588 C437.331621,87.4451148 438.75524,90.5712942 438.75524,92.8019375 C438.75524,94.5729167 438.035776,96.8955502 436.594184,98.5945697 C435.155344,100.290346 433.142039,101.379079 430.720089,101.379079 C429.454414,101.379079 427.756072,101.035823 425.49747,100.471367 C422.610233,99.7747165 418.340641,98.7775216 412.29239,98.7775216 C407.603238,98.7775216 403.631915,100.036124 400.845885,102.303478 C398.364657,104.322775 396.913523,107.152951 396.913523,110.362451 C396.913523,116.905087 402.698845,120.494262 408.746135,124.217972 L409.39481,124.617596 C409.719397,124.817807 410.04417,125.018719 410.368279,125.22081 L411.123557,125.690498 L411.891938,126.16661 C412.682906,126.65701 413.479568,127.15143 414.284572,127.657468 L414.971976,128.091289 L416.004418,128.750635 C416.713109,129.206918 417.419648,129.670125 418.120824,130.14206 L418.813705,130.612523 L419.503518,131.089964 C429.090103,137.790871 437.020868,146.348277 437.020868,160.442433 C437.020868,170.092262 433.032442,178.262245 426.521304,184.072531 C420.042977,189.853538 410.989808,193.300779 400.802178,193.300779 C389.033485,193.300779 379.727082,191.152769 373.905233,188.824029 C371.74285,187.939583 370.396244,186.955504 369.491127,185.929705 C368.177822,184.441293 367.510239,182.742269 367.510239,180.496106 C367.510239,178.029236 368.371899,175.82468 369.691555,174.225097 C371.292079,172.285069 373.546085,171.160177 376.087381,171.160177 C377.408569,171.160177 379.332348,171.503104 381.985588,172.385713 C385.793713,173.586217 391.493947,175.170911 400.368585,175.170911 C405.558177,175.170911 410.054055,173.666206 413.217819,170.93039 C416.11917,168.421492 417.807018,164.876952 417.807018,160.767628 C417.807018,152.236849 411.327539,147.913531 404.532009,143.858338 L403.884058,143.472814 C403.451716,143.216171 403.018889,142.960104 402.587154,142.703605 L401.889924,142.290596 C401.654264,142.151364 401.418221,142.012216 401.181924,141.873067 L400.137369,141.251506 C399.07853,140.61958 398.022211,139.981862 396.978879,139.331459 L396.290623,138.89925 C386.133879,132.472308 377.808071,124.636703 377.808071,110.904442 C377.808071,101.88097 381.597644,94.2659817 388.013566,88.888608 C394.146016,83.748821 402.79052,80.6476543 412.94278,80.6476543 Z M615.756232,80.6476543 C628.967516,80.6476543 639.370201,85.2830733 646.503712,93.9497564 C653.207669,102.094565 657.069639,114.045593 657.069639,129.765734 C657.069639,147.755869 651.556486,163.39231 642.636972,174.59356 C633.268822,186.358214 620.161322,193.300779 605.4584,193.300779 C592.247116,193.300779 581.844431,188.66536 574.71092,179.998677 C568.006963,171.853868 564.144993,159.90284 564.144993,144.182699 C564.144993,126.084796 569.559522,110.374269 578.48705,99.1629545 C587.749806,87.5306558 600.776268,80.6476543 615.756232,80.6476543 Z"/>
<path fill="#00D01C" fill-rule="nonzero" d="M605.4584,179.845717 C588.981869,179.845717 578.358842,167.921911 578.358842,142.990318 C578.358842,115.890761 594.510179,94.1027163 615.756232,94.1027163 C632.232763,94.1027163 642.85579,106.026522 642.85579,130.958115 C642.85579,158.057672 627.029648,179.845717 605.4584,179.845717 Z"/></g></svg>