<svg xmlns="http://www.w3.org/2000/svg" width="1024" height="346" viewBox="0 0 1024 346">
  <path d="M416.449171,219.595703 C426.210889,219.595703 434.79113,217.213379 442.189893,212.44873 C450.712029,206.948079 454.973097,199.588053 454.973097,190.368652 C454.973097,183.899577 452.687615,178.418294 448.116651,173.924805 C443.119581,169.005208 436.185662,166.216146 427.314893,165.557617 C421.194451,165.13151 417.068962,164.666667 414.938429,164.163086 C409.205356,162.846029 406.338819,160.579915 406.338819,157.364746 C406.338819,153.103678 408.50809,149.481771 412.846632,146.499023 C417.068962,143.59375 422.201612,142.102376 428.244581,142.024902 C430.375115,141.986165 433.377231,142.383219 437.250929,143.216064 C441.124626,144.04891 443.836215,144.465332 445.385694,144.465332 C448.872022,144.465332 450.615186,142.760905 450.615186,139.352051 C450.615186,136.756673 447.477491,134.626139 441.2021,132.960449 C436.476189,131.682129 432.23449,131.042969 428.477003,131.042969 C420.497185,131.042969 412.769158,133.735189 405.292921,139.119629 C397.468051,144.813965 393.555616,151.108724 393.555616,158.003906 C393.555616,163.85319 396.305942,168.34668 401.806593,171.484375 C406.106397,173.924805 411.316521,175.26123 417.436964,175.493652 C424.332146,175.687337 430.123324,177.004395 434.810499,179.444824 C440.349887,182.272624 443.119581,186.126953 443.119581,191.007812 C443.119581,196.93457 439.826938,201.563639 433.241651,204.89502 C428.089633,207.490397 422.511508,208.788086 416.507276,208.788086 C410.231886,208.788086 405.447869,207.703451 402.155225,205.53418 C400.605746,204.488281 398.843214,202.493327 396.867628,199.549316 C395.43436,197.380046 393.768669,196.29541 391.870557,196.29541 C390.204867,196.29541 388.800652,196.808675 387.657911,197.835205 C386.51517,198.861735 385.963168,200.188477 386.001905,201.81543 C386.118116,207.625977 389.778761,212.19694 396.983839,215.52832 C402.87186,218.239909 409.360304,219.595703 416.449171,219.595703 Z M496.779594,220.292969 C507.238578,220.292969 516.312716,216.738851 524.002006,209.630615 C531.691296,202.52238 536.736788,193.022135 539.138481,181.129883 C541.269014,180.045247 542.334281,178.243978 542.334281,175.726074 C542.334281,174.021647 541.772595,172.607747 540.649223,171.484375 C539.52585,170.361003 538.131319,169.799316 536.465629,169.799316 C515.973767,169.799316 501.544242,172.355957 493.177055,177.469238 C491.123995,178.747559 490.097465,180.451986 490.097465,182.58252 C490.097465,184.170736 490.620414,185.565267 491.666313,186.766113 C492.789685,188.083171 494.203585,188.741699 495.908012,188.741699 C496.760225,188.741699 497.631807,188.528646 498.522758,188.102539 C506.19268,184.5 515.392712,182.427572 526.122856,181.885254 C523.992322,190.5236 520.234835,197.166992 514.850395,201.81543 C509.737113,206.192708 503.713513,208.381348 496.779594,208.381348 C490.233044,208.381348 485.739555,206.793132 483.299125,203.616699 C481.05238,200.711426 479.929008,195.617513 479.929008,188.334961 C479.929008,174.467122 484.403129,161.606445 493.351371,149.75293 C496.334119,145.763021 498.6196,143.012695 500.207817,141.501953 C503.384249,138.480469 506.425102,136.969727 509.330375,136.969727 C513.397758,136.969727 518.394828,138.770996 524.321586,142.373535 C525.871065,143.34196 527.071912,143.826172 527.924125,143.826172 C529.551078,143.826172 530.94561,143.20638 532.107719,141.966797 C533.269828,140.727214 533.850883,139.313314 533.850883,137.725098 C533.850883,134.35498 530.325818,131.275391 523.275688,128.486328 C517.503878,126.162109 512.85544,125 509.330375,125 C503.790987,125 498.542126,127.188639 493.583793,131.565918 C486.146293,138.112467 480.054903,146.702393 475.309623,157.335693 C470.564343,167.968994 468.191703,178.302083 468.191703,188.334961 C468.191703,198.98763 470.574027,206.977132 475.338676,212.303467 C480.103324,217.629801 487.250297,220.292969 496.779594,220.292969 Z M593.960603,219.828125 C607.20865,219.828125 618.016267,213.668945 626.383455,201.350586 C633.666007,190.581706 637.307283,178.495768 637.307283,165.092773 C637.307283,152.232096 634.072745,142.81901 627.603669,136.853516 C621.405753,131.120443 611.934561,128.253906 599.190095,128.253906 C585.942048,128.253906 574.882641,134.335612 566.011873,146.499023 C558.070792,157.461589 554.100251,169.644368 554.100251,183.047363 C554.100251,194.048665 558.128897,203.035645 566.186189,210.008301 C573.778637,216.55485 583.036775,219.828125 593.960603,219.828125 Z M593.960603,207.916504 C586.135733,207.916504 579.569815,205.708496 574.262849,201.29248 C568.723461,196.605306 565.953767,190.5236 565.953767,183.047363 C565.953767,172.588379 568.99462,163.020345 575.076326,154.343262 C581.661612,144.891439 589.699535,140.165527 599.190095,140.165527 C608.603181,140.165527 615.28531,141.966797 619.236482,145.569336 C623.381339,149.326823 625.453767,155.834635 625.453767,165.092773 C625.453767,175.667969 622.72281,185.197266 617.260896,193.680664 C611.140453,203.171224 603.373689,207.916504 593.960603,207.916504 Z"/>
</svg>
