<svg xmlns="http://www.w3.org/2000/svg" width="1024" height="346" viewBox="0 0 1024 346">
  <g fill="none" fill-rule="evenodd">
    <path fill="#565656" fill-rule="nonzero" d="M384.211694,224.460746 L384.211694,206.481338 C395.455029,211.200367 405.075229,213.559846 413.072581,213.559846 C418.670727,213.559846 423.080965,212.309322 426.303427,209.808237 C429.52589,207.307152 431.137097,203.909502 431.137097,199.615187 C431.137097,196.217486 430.125682,193.35072 428.102823,191.014801 C426.079963,188.678881 422.245996,185.906494 416.600806,182.697555 L409.614919,178.804376 C400.253313,173.519064 393.643836,168.457982 389.78629,163.620978 C385.928744,158.783974 384,153.133022 384,146.667954 C384,138.032132 387.163611,131.095264 393.490927,125.857143 C399.818244,120.619021 408.180056,118 418.576613,118 C426.903267,118 436.288254,119.203334 446.731855,121.610039 L446.731855,138.3861 C436.053038,134.374926 427.608902,132.369369 421.399194,132.369369 C416.600782,132.369369 412.755055,133.442932 409.861895,135.59009 C406.968736,137.737248 405.522177,140.556825 405.522177,144.048906 C405.522177,146.927513 406.533592,149.452156 408.556452,151.622909 C410.579311,153.793662 414.389757,156.459873 419.987903,159.621622 L427.467742,163.797941 C437.534997,169.460775 444.473771,174.675223 448.284274,179.441441 C452.094777,184.20766 454,190.011978 454,196.854569 C454,206.575767 450.401246,214.196884 443.203629,219.718147 C436.006012,225.23941 426.080036,228 413.425403,228 C405.051705,228 395.3139,226.820261 384.211694,224.460746 Z M466.211694,224.460746 L466.211694,206.481338 C477.455029,211.200367 487.075229,213.559846 495.072581,213.559846 C500.670727,213.559846 505.080965,212.309322 508.303427,209.808237 C511.52589,207.307152 513.137097,203.909502 513.137097,199.615187 C513.137097,196.217486 512.125682,193.35072 510.102823,191.014801 C508.079963,188.678881 504.245996,185.906494 498.600806,182.697555 L491.614919,178.804376 C482.253313,173.519064 475.643836,168.457982 471.78629,163.620978 C467.928744,158.783974 466,153.133022 466,146.667954 C466,138.032132 469.163611,131.095264 475.490927,125.857143 C481.818244,120.619021 490.180056,118 500.576613,118 C508.903267,118 518.288254,119.203334 528.731855,121.610039 L528.731855,138.3861 C518.053038,134.374926 509.608902,132.369369 503.399194,132.369369 C498.600782,132.369369 494.755055,133.442932 491.861895,135.59009 C488.968736,137.737248 487.522177,140.556825 487.522177,144.048906 C487.522177,146.927513 488.533592,149.452156 490.556452,151.622909 C492.579311,153.793662 496.389757,156.459873 501.987903,159.621622 L509.467742,163.797941 C519.534997,169.460775 526.473771,174.675223 530.284274,179.441441 C534.094777,184.20766 536,190.011978 536,196.854569 C536,206.575767 532.401246,214.196884 525.203629,219.718147 C518.006012,225.23941 508.080036,228 495.425403,228 C487.051705,228 477.3139,226.820261 466.211694,224.460746 Z M555,225 L555,120 L594.176373,120 C615.438265,120 626.069052,128.678967 626.069052,146.037162 C626.069052,152.516924 624.265825,158.417203 620.659318,163.738176 C617.052811,169.059148 612.090991,173.138499 605.77371,175.976351 L640,225 L613.481697,225 L587.529118,182.077703 L575.507488,182.077703 L575.507488,225 L555,225 Z"/>
    <circle cx="594" cy="149" r="20" fill="#00FF1E"/>
  </g>
</svg>
